<mxfile host="app.diagrams.net" agent="Mozilla/5.0 (Windows NT 10.0; Win64; x64) AppleWebKit/537.36 (KHTML, like Gecko) Chrome/133.0.0.0 Safari/537.36" version="26.0.16">
  <diagram name="PÃ¡gina-1" id="599S5XnXJdjhlas2S3O-">
    <mxGraphModel dx="1990" dy="1334" grid="1" gridSize="10" guides="1" tooltips="1" connect="1" arrows="1" fold="1" page="1" pageScale="1" pageWidth="827" pageHeight="1169" math="0" shadow="0">
      <root>
        <mxCell id="0" />
        <mxCell id="1" parent="0" />
        <mxCell id="zdY4yF2q1gv_vozhe07n-11" style="edgeStyle=orthogonalEdgeStyle;rounded=0;orthogonalLoop=1;jettySize=auto;html=1;exitX=0.5;exitY=1;exitDx=0;exitDy=0;" edge="1" parent="1" source="zdY4yF2q1gv_vozhe07n-1" target="zdY4yF2q1gv_vozhe07n-7">
          <mxGeometry relative="1" as="geometry" />
        </mxCell>
        <mxCell id="zdY4yF2q1gv_vozhe07n-1" value="&lt;b&gt;Empleado&lt;/b&gt;" style="rounded=0;whiteSpace=wrap;html=1;fillColor=#f5f5f5;strokeColor=#666666;gradientColor=#b3b3b3;" vertex="1" parent="1">
          <mxGeometry x="-160" y="30" width="180" height="50" as="geometry" />
        </mxCell>
        <mxCell id="zdY4yF2q1gv_vozhe07n-2" value="&lt;b&gt;Recurso&lt;/b&gt;" style="rounded=0;whiteSpace=wrap;html=1;fillColor=#f5f5f5;gradientColor=#b3b3b3;strokeColor=#666666;" vertex="1" parent="1">
          <mxGeometry x="310" y="310" width="180" height="50" as="geometry" />
        </mxCell>
        <mxCell id="zdY4yF2q1gv_vozhe07n-9" style="edgeStyle=orthogonalEdgeStyle;rounded=0;orthogonalLoop=1;jettySize=auto;html=1;exitX=0.5;exitY=1;exitDx=0;exitDy=0;entryX=0.5;entryY=0;entryDx=0;entryDy=0;" edge="1" parent="1" source="zdY4yF2q1gv_vozhe07n-3" target="zdY4yF2q1gv_vozhe07n-6">
          <mxGeometry relative="1" as="geometry" />
        </mxCell>
        <mxCell id="zdY4yF2q1gv_vozhe07n-3" value="&lt;b&gt;Obra&lt;/b&gt;" style="rounded=0;whiteSpace=wrap;html=1;fillColor=#f5f5f5;strokeColor=#666666;gradientColor=#b3b3b3;" vertex="1" parent="1">
          <mxGeometry x="-400" y="160" width="180" height="50" as="geometry" />
        </mxCell>
        <mxCell id="zdY4yF2q1gv_vozhe07n-13" style="edgeStyle=orthogonalEdgeStyle;rounded=0;orthogonalLoop=1;jettySize=auto;html=1;exitX=1;exitY=0.5;exitDx=0;exitDy=0;" edge="1" parent="1" source="zdY4yF2q1gv_vozhe07n-4" target="zdY4yF2q1gv_vozhe07n-8">
          <mxGeometry relative="1" as="geometry" />
        </mxCell>
        <mxCell id="zdY4yF2q1gv_vozhe07n-4" value="&lt;b&gt;Tarea&lt;/b&gt;" style="rounded=0;whiteSpace=wrap;html=1;fillColor=#f5f5f5;gradientColor=#b3b3b3;strokeColor=#666666;" vertex="1" parent="1">
          <mxGeometry x="-150" y="310" width="180" height="50" as="geometry" />
        </mxCell>
        <mxCell id="zdY4yF2q1gv_vozhe07n-10" style="edgeStyle=orthogonalEdgeStyle;rounded=0;orthogonalLoop=1;jettySize=auto;html=1;exitX=1;exitY=0.5;exitDx=0;exitDy=0;entryX=0;entryY=0.5;entryDx=0;entryDy=0;" edge="1" parent="1" source="zdY4yF2q1gv_vozhe07n-6" target="zdY4yF2q1gv_vozhe07n-4">
          <mxGeometry relative="1" as="geometry">
            <mxPoint x="-180" y="340" as="targetPoint" />
          </mxGeometry>
        </mxCell>
        <mxCell id="zdY4yF2q1gv_vozhe07n-6" value="Contiene" style="shape=rhombus;perimeter=rhombusPerimeter;whiteSpace=wrap;html=1;align=center;" vertex="1" parent="1">
          <mxGeometry x="-370" y="310" width="120" height="60" as="geometry" />
        </mxCell>
        <mxCell id="zdY4yF2q1gv_vozhe07n-12" style="edgeStyle=orthogonalEdgeStyle;rounded=0;orthogonalLoop=1;jettySize=auto;html=1;exitX=0.5;exitY=1;exitDx=0;exitDy=0;entryX=0.5;entryY=0;entryDx=0;entryDy=0;" edge="1" parent="1" source="zdY4yF2q1gv_vozhe07n-7" target="zdY4yF2q1gv_vozhe07n-4">
          <mxGeometry relative="1" as="geometry" />
        </mxCell>
        <mxCell id="zdY4yF2q1gv_vozhe07n-7" value="Trabaja" style="shape=rhombus;perimeter=rhombusPerimeter;whiteSpace=wrap;html=1;align=center;" vertex="1" parent="1">
          <mxGeometry x="-120" y="155" width="120" height="60" as="geometry" />
        </mxCell>
        <mxCell id="zdY4yF2q1gv_vozhe07n-14" style="edgeStyle=orthogonalEdgeStyle;rounded=0;orthogonalLoop=1;jettySize=auto;html=1;exitX=1;exitY=0.5;exitDx=0;exitDy=0;entryX=0;entryY=0.5;entryDx=0;entryDy=0;" edge="1" parent="1" source="zdY4yF2q1gv_vozhe07n-8" target="zdY4yF2q1gv_vozhe07n-2">
          <mxGeometry relative="1" as="geometry" />
        </mxCell>
        <mxCell id="zdY4yF2q1gv_vozhe07n-8" value="Utiliza" style="shape=rhombus;perimeter=rhombusPerimeter;whiteSpace=wrap;html=1;align=center;" vertex="1" parent="1">
          <mxGeometry x="120" y="310" width="120" height="60" as="geometry" />
        </mxCell>
        <mxCell id="zdY4yF2q1gv_vozhe07n-15" value="N.M" style="text;html=1;align=center;verticalAlign=middle;resizable=0;points=[];autosize=1;strokeColor=none;fillColor=none;" vertex="1" parent="1">
          <mxGeometry x="-5" y="170" width="50" height="30" as="geometry" />
        </mxCell>
        <mxCell id="zdY4yF2q1gv_vozhe07n-16" value="1.N" style="text;html=1;align=center;verticalAlign=middle;resizable=0;points=[];autosize=1;strokeColor=none;fillColor=none;" vertex="1" parent="1">
          <mxGeometry x="-310" y="288" width="40" height="30" as="geometry" />
        </mxCell>
        <mxCell id="zdY4yF2q1gv_vozhe07n-17" value="N.M" style="text;html=1;align=center;verticalAlign=middle;resizable=0;points=[];autosize=1;strokeColor=none;fillColor=none;" vertex="1" parent="1">
          <mxGeometry x="157" y="278" width="50" height="30" as="geometry" />
        </mxCell>
      </root>
    </mxGraphModel>
  </diagram>
</mxfile>
